<?xml version="1.0" encoding="utf-8"?>
<!DOCTYPE svg PUBLIC "-//W3C//DTD SVG 1.0//EN" "http://www.w3.org/TR/2001/REC-SVG-20010904/DTD/svg10.dtd">
<svg version="1.0" xmlns="http://www.w3.org/2000/svg" width="1024px" height="1024px" viewBox="0 0 1024 1024" preserveAspectRatio="xMidYMid meet">
 <g fill="#ffffff">
  <path d="M0 512 l0 -512 512 0 512 0 0 512 0 512 -512 0 -512 0 0 -512z m547.25 408.80 c24.75 -2.55 45.75 -6.10 66 -11.15 45.45 -11.30 87 -28.90 125.25 -53.05 35.50 -22.40 68.10 -50.90 94.75 -82.85 26.85 -32.20 49.75 -70 65.25 -107.75 2.30 -5.60 3.75 -9.35 8.50 -22 0.80 -2.05 2.70 -7.80 4.25 -12.75 12.55 -39.80 18.45 -76.25 19.10 -118.15 0.85 -52.70 -9 -106.95 -28.45 -156.80 -1.95 -4.95 -3.70 -9.35 -3.95 -9.75 -0.20 -0.45 -1.70 -3.70 -3.25 -7.30 -3.45 -8.10 -10.45 -22 -15.50 -31.10 -39.95 -71.45 -95.40 -126.25 -166.20 -164.15 -48.35 -25.90 -102.25 -42.30 -157.75 -48 -33.05 -3.40 -70.35 -2.45 -103.25 2.55 -71.25 10.80 -135.65 37.50 -191.25 79.20 -17.60 13.20 -30.90 24.90 -48.25 42.55 -15.35 15.60 -24.50 26.25 -37.10 43.20 -24.20 32.55 -42.60 67.05 -56.70 106.10 -10.90 30.25 -17.45 58.90 -21.15 92.15 -2.95 26.85 -3 65.10 -0.05 90 4.25 36.45 11.55 67.35 23.25 99 1.75 4.70 3.75 9.90 4.45 11.65 5.50 13.25 6.40 15.30 12.85 28.35 6.15 12.50 8.65 17.25 13.30 25.25 19.55 33.45 42.60 62.30 73.75 92.30 6.20 5.95 19.70 17.75 25.05 21.85 13.05 10.05 20.50 15.50 28.90 21.15 58.40 39.20 123 62.20 194.20 69.15 14.15 1.40 14.60 1.40 42 1.30 18 -0.10 26 -0.35 32 -0.95z"/>
  <path d="M491.50 897 c-38.55 -2.15 -71.40 -8.40 -106.25 -20.20 -41.50 -14.05 -81.65 -35.70 -115.75 -62.45 -49.20 -38.65 -89.75 -90.15 -114.70 -145.75 -1.25 -2.80 -2.30 -5.20 -2.30 -5.35 0 -0.15 -0.45 -1.20 -1 -2.40 -3.60 -7.80 -9.40 -24.10 -14.05 -39.35 -19.25 -62.90 -22.15 -131.30 -8.45 -196.25 5.10 -24.20 14.95 -54.50 24.50 -75.50 10.40 -22.80 17.20 -35.35 29.25 -53.75 24.15 -37 56.15 -71.05 92.25 -98.20 13.85 -10.45 34.70 -23.90 47.60 -30.70 2.70 -1.45 7 -3.70 9.50 -5.05 16.40 -8.75 42.95 -19.45 63.65 -25.70 30.55 -9.25 52.10 -13.25 87.75 -16.45 9.70 -0.85 47.10 -0.85 58 0 52.10 4.10 98.15 16.05 142.50 37.05 58.55 27.70 106.25 66.80 144.90 118.80 48.25 64.90 74.15 141.10 75.90 223.50 1.40 64.20 -11.75 123 -40.60 181.50 -15.25 31 -31.45 55.45 -55.15 83.25 -7.50 8.85 -29.90 31.25 -38.80 38.80 -15.80 13.45 -31.95 25.35 -47.25 34.80 -49.55 30.55 -106.60 50.50 -163.45 57.15 -18.75 2.20 -50.30 3.25 -68.05 2.25z m22 -106.55 c29.50 -0.55 42.70 -1 43.25 -1.50 0.35 -0.40 -3.10 -16.80 -6.35 -29.70 -5.40 -21.75 -10.15 -35.15 -17.65 -50.30 -7.15 -14.45 -18.15 -30.60 -28.50 -41.95 -1.60 -1.80 -13.80 -14 -27.10 -27.15 -22.05 -21.85 -37.45 -37.80 -48.65 -50.35 -14.75 -16.45 -31.20 -37 -42.35 -52.75 -5.70 -8.10 -10.80 -12.30 -17.45 -14.55 -5.25 -1.70 -7.70 -1.70 -11.60 0.05 -7.15 3.20 -10.80 11.15 -9.15 19.85 1.50 7.95 6.10 20.30 10.95 29.40 6.10 11.45 10.75 18.20 27.35 39.75 19.70 25.60 25.10 33.50 32.10 47.10 6.75 13 9.15 20.45 9.15 28.40 0 6.30 -0.25 6.75 -3.95 6.75 -4.50 0 -5.75 -1.10 -19.25 -17.25 -35.75 -42.75 -56.05 -71.50 -68.90 -97.55 -15.60 -31.55 -23.30 -60.60 -26.50 -99.45 -0.75 -9.60 -0.75 -39.70 0.05 -49.75 1.75 -22.75 3.55 -39.25 8.55 -79.75 1.65 -13.20 3.05 -24.85 3.20 -25.90 0.55 -4.85 -2.30 -11.65 -6.40 -15.25 -3.55 -3.10 -6.60 -4.30 -11.05 -4.30 -3.55 -0.05 -4.40 0.15 -7.35 1.60 -3.75 1.85 -7.15 4.90 -9.05 8.15 -1.40 2.45 -19.15 72.60 -24.15 95.45 -4.90 22.50 -6.55 35.75 -7.75 61.95 -1.35 29.15 2.35 71.80 9.10 105.30 9.75 48.45 23.55 79.40 50.15 112.50 28.30 35.30 74.70 73.35 109.05 89.50 14.05 6.60 28.80 10.85 41.25 11.90 4.50 0.35 21.35 0.30 49 -0.20z m76.80 -41.45 c10.90 -25.95 25.65 -47.45 43.65 -63.80 6.75 -6.15 10.45 -8.90 26.80 -19.80 41.35 -27.70 56.45 -39.30 71.65 -55.10 18.60 -19.35 30.70 -46.25 37.65 -83.80 3.95 -21.40 6.10 -47.60 5.05 -61.15 -1.90 -23.75 -5.90 -43 -19 -91.85 -2.45 -9.20 -5.55 -20.90 -6.85 -26 -6.55 -25.95 -8.80 -33.75 -10.40 -36.45 -3.35 -5.60 -11.15 -10.65 -16.50 -10.70 -6.70 -0.10 -14.80 7.50 -16.30 15.25 -0.35 1.70 -0.70 3.55 -0.80 4 -0.20 1.20 2.45 25.15 4.75 42.40 7.10 53.50 9.30 75.15 9.85 97.40 0.25 10.85 0.40 12.10 1.10 11.80 9.90 -4.15 16.15 -5.40 25.50 -5.05 8.30 0.25 11.45 1.10 15.95 4.20 3.90 2.65 4.60 3.75 4.60 7.20 0 4.45 -0.70 4.95 -6.95 4.95 -4.15 0 -5.70 0.25 -9.65 1.50 -9.75 3.20 -17.05 8.35 -31.15 21.95 -18.55 17.90 -28.15 25.15 -56.80 42.80 -11.25 6.95 -10.85 6.70 -33.70 20.40 -27 16.15 -33.60 20.25 -39 24.10 -22.20 15.80 -38.95 38.25 -48.50 65 l-1.65 4.45 3.50 3.95 c12.60 14.25 25.65 36.25 34 57.10 2.10 5.25 6.90 19.40 9.15 26.90 0.75 2.45 1.40 4.35 1.50 4.25 0.05 -0.10 1.20 -2.75 2.55 -5.90z m-72.20 -156.75 c3.65 -7.20 11.60 -24.40 13 -28.25 1 -2.55 6.65 -16.35 11.40 -27.75 3.25 -7.75 9.55 -20.45 13.25 -26.50 8.45 -13.90 16.70 -23.40 36.70 -42.25 7.85 -7.35 17.45 -16.80 21.30 -20.95 6.95 -7.55 7 -7.60 9 -7.45 2 0.15 2 0.15 2.15 2.35 0.45 5.95 -10.50 27.70 -24.40 48.65 -7.65 11.45 -12.75 18 -19.70 25.25 -2.95 3.10 -5.20 5.65 -4.95 5.65 0.90 0 11.80 -6.35 16 -9.35 5.95 -4.20 13.60 -10.65 19.25 -16.25 24.75 -24.50 42.45 -55.10 56.45 -97.40 2.40 -7.35 2.75 -8.80 2.15 -9.15 -1.70 -0.95 -25.75 2.20 -39.05 5.15 -24.85 5.45 -47.85 15.80 -64.35 29 -14.75 11.75 -25.80 28.40 -31.85 48 -3.70 11.85 -4.90 20.45 -5.40 37.50 l-0.35 13.25 -2.95 5 c-3.35 5.75 -6.40 12.10 -8.75 18.40 l-1.65 4.35 -2.10 0 -2.05 0 -2.75 -5.85 c-1.50 -3.25 -4.35 -8.75 -6.35 -12.25 -5.05 -8.85 -5.40 -10.35 -4.65 -21.40 0.45 -6.45 0.45 -10.05 0.05 -13.75 -1.80 -16 -6.25 -29.05 -15 -43.80 -9.15 -15.40 -23.45 -29.45 -40.30 -39.55 -17.80 -10.70 -36.90 -17.55 -59.55 -21.40 -11.20 -1.95 -25 -3.35 -25.65 -2.70 -0.35 0.35 0.25 2.90 1.80 7.75 9.55 30.30 21.50 55.55 35.60 75.10 13.70 19.05 36 39.45 52 47.55 2.20 1.10 2.60 1.20 2.15 0.45 -0.25 -0.50 -1.20 -1.55 -2.05 -2.40 -2.10 -1.95 -10.60 -12.05 -14.10 -16.80 -9.35 -12.70 -19.45 -29.80 -28.95 -49.10 -3.55 -7.20 -4.15 -8.80 -4.20 -11 l0 -2.60 1.85 -0.15 c1.75 -0.15 2 0 4.25 2.95 5.30 6.95 13.35 15.50 29.75 31.75 21 20.75 26.30 27.20 35.85 43.60 3.15 5.45 9.85 18.75 13.05 25.85 0.60 1.40 1.60 3.65 2.25 5 0.60 1.40 3.75 8.45 7 15.75 3.20 7.30 7.95 17.55 10.55 22.75 4.35 8.85 5.40 10.90 7.95 15.15 l0.95 1.60 1.20 -1.85 c0.65 -1.05 2.50 -4.60 4.20 -7.90z m0.40 -169.70 c2.60 -1.20 5.65 -4 6.90 -6.25 0.60 -1.10 0.90 -3.25 1.10 -7.30 l0.25 -5.75 2.40 -0.15 c1.30 -0.10 2.35 0.05 2.35 0.30 0 0.25 0.90 1.50 2 2.70 3.65 4.20 8.05 5.30 14.15 3.55 3.95 -1.10 7.80 -4.55 9.90 -8.95 2.95 -6.25 1.70 -10.85 -4.35 -16 -2.50 -2.15 -2.70 -2.50 -2.70 -4.45 l0 -2.15 5.90 -0.20 c6.70 -0.20 8.65 -0.95 11.75 -4.35 5.50 -6.10 5.50 -13.50 -0.05 -19.65 -3.05 -3.35 -5.85 -4.40 -12.20 -4.40 l-5.40 0 0 -2.15 c0 -1.95 0.20 -2.25 2.35 -3.85 2.95 -2.20 5.40 -5.60 6.20 -8.60 0.90 -3.25 -0.05 -7.05 -2.70 -11.05 -2.55 -3.80 -5.10 -5.55 -9.45 -6.70 -2.80 -0.75 -3.80 -0.80 -6.10 -0.30 -3.35 0.70 -6.30 2.60 -8.10 5.20 -1.30 1.90 -1.50 2 -3.65 1.85 l-2.30 -0.15 -0.25 -5.50 c-0.20 -4.80 -0.40 -5.80 -1.60 -7.75 -2.25 -3.90 -5.45 -6.05 -10.45 -7.10 -5.30 -1.10 -11.35 1.90 -14.20 7.10 -1.30 2.40 -1.55 3.40 -1.75 7.75 l-0.25 5 -2.45 0.15 c-2.30 0.15 -2.60 0.05 -4.75 -2.05 -3.45 -3.40 -6.10 -4.55 -10.30 -4.55 -2.65 0 -4 0.30 -5.65 1.15 -3.50 1.80 -6.35 4.75 -7.85 8.10 -3.05 6.85 -1.20 12.65 5.70 17.70 1.90 1.35 2.05 1.65 1.95 3.50 l-0.15 2 -6.25 0.25 c-6.90 0.30 -8.25 0.75 -11.25 3.80 -6.20 6.15 -6 15 0.45 21.15 3.25 3.05 4.95 3.55 11.95 3.55 l5.35 0 0 1.95 c0 1.75 -0.30 2.20 -3.20 4.75 -4.30 3.75 -6.05 7.20 -5.65 11.05 0.80 7.80 7.20 14.10 14.85 14.60 2.50 0.20 3.75 0 5.55 -0.75 2.50 -1.10 5.30 -3.60 6 -5.45 0.35 -1 0.75 -1.15 3.20 -1.15 l2.75 0 0 4.70 c0 5.40 0.50 7.20 2.85 10.35 4.10 5.45 11.25 7.30 17.15 4.50z m-100.25 -108.45 c9.45 -2.55 16.50 -6.45 22.40 -12.45 l3.35 -3.45 -3.55 -3.85 c-7.50 -8.15 -17.40 -13.15 -29.25 -14.85 -8.80 -1.20 -21.70 3.10 -32.65 10.85 -3.50 2.50 -8.05 6.55 -8.05 7.15 0 1.55 10.05 9.05 16.30 12.15 11.15 5.60 21.70 7.05 31.45 4.45z m209.25 -0.10 c10.25 -2.85 17.50 -6.80 24.45 -13.30 l3.65 -3.45 -3.65 -3.05 c-8 -6.60 -15.20 -10.60 -23.20 -12.90 -7 -2 -10.60 -2.35 -15.90 -1.55 -11.45 1.75 -21.50 7.25 -28.50 15.50 l-2.85 3.45 1.85 1.90 c2.40 2.45 9.60 7.60 13.15 9.40 10.35 5.20 21.40 6.65 31 4z m-150.30 -21.60 c2.90 -10.50 3.30 -19.80 1.15 -28.05 -4.10 -15.50 -16.65 -30.15 -31.20 -36.30 -4.75 -2.05 -12.65 -4.30 -13.10 -3.75 -0.20 0.25 -0.65 1.60 -0.95 2.95 -3 12.80 -1.45 26.65 4.20 37.90 4.20 8.25 12.10 16.65 20.50 21.70 3.70 2.25 9.20 4.55 13.35 5.65 4.80 1.25 5.65 1.25 6.05 -0.10z m76.85 -0.40 c13.85 -3.10 24.90 -10.60 32.50 -22.05 6.30 -9.45 8.80 -24.15 6.70 -39.20 -0.45 -3.30 -0.95 -6.10 -1.05 -6.25 -0.40 -0.35 -8.05 1.75 -12.45 3.45 -7.85 3 -17.40 10.35 -23.05 17.65 -4.30 5.55 -8 13.80 -9.75 21.65 -0.80 3.80 -0.85 15.05 0 19 1.05 5.10 1.55 6.75 2.05 6.75 0.30 0 2.55 -0.45 5.05 -1z m-36.70 -12.10 c7.05 -7.35 13.35 -17.50 16.35 -26.50 4.95 -14.75 3.75 -29.10 -3.60 -43.75 -3.30 -6.55 -10.85 -17 -15.25 -21.10 l-1.30 -1.20 -3.40 3.65 c-12.75 13.60 -19.75 29.20 -19.75 44.25 -0.05 13.15 5.50 27.80 14.85 39.50 2.60 3.30 7.80 8.75 8.25 8.75 0.20 0 1.90 -1.65 3.85 -3.60z"/>
  <path d="M505.95 382.35 c-7.65 -2.85 -11.80 -9.70 -11.35 -18.65 0.35 -7.05 3.20 -11.50 9.60 -15 2.40 -1.35 2.90 -1.45 8.55 -1.45 5.40 0 6.25 0.15 8.85 1.35 3.55 1.65 6.35 4.45 8.20 8.20 1.30 2.70 1.45 3.40 1.45 8.20 0 4.65 -0.15 5.60 -1.30 8.05 -1.80 3.80 -4.50 6.65 -7.85 8.30 -2.55 1.25 -3.45 1.40 -8.60 1.55 -3.90 0.05 -6.35 -0.10 -7.55 -0.55z"/>
 </g>
 <g fill="#c09f82">
  <path d="M486 923.20 c-6.20 -0.30 -24.15 -2.20 -33.50 -3.50 -63.20 -8.85 -122 -31.35 -174.95 -66.90 -8.40 -5.65 -15.85 -11.10 -28.90 -21.15 -5.35 -4.10 -18.85 -15.90 -25.05 -21.85 -31.15 -30 -54.20 -58.85 -73.75 -92.30 -4.65 -8 -7.15 -12.75 -13.30 -25.25 -6.45 -13.05 -7.35 -15.10 -12.85 -28.35 -10.55 -25.65 -19.30 -56.65 -24.20 -85.90 -4.25 -25.25 -5.70 -43.10 -5.70 -70.25 0.05 -35.40 2.55 -59.80 9.50 -91.75 8.20 -37.85 24.60 -79.90 44.60 -114.50 13 -22.50 29.95 -46.15 47.10 -65.75 6.95 -8 25 -26.25 34 -34.45 38.70 -35.35 85.30 -63.80 133.25 -81.45 39.10 -14.35 72.40 -21.85 116 -26.10 11.10 -1.10 44 -1.55 58 -0.80 62.50 3.35 123.75 20.35 178.25 49.55 70.80 37.90 126.25 92.70 166.20 164.15 5.05 9.10 12.05 23 15.50 31.10 1.55 3.60 3.05 6.85 3.25 7.30 1.05 1.90 7.70 19.45 10.20 26.95 12.65 37.90 19 70.70 21.90 113.35 0.75 11.15 0.30 43.75 -0.75 55.90 -2 22.15 -5.10 42.05 -9.35 60 -3.50 14.70 -9.35 34.70 -12.95 44.25 -4.75 12.65 -6.20 16.40 -8.50 22 -15.50 37.75 -38.40 75.55 -65.25 107.75 -48.55 58.20 -113.50 102.05 -186.95 126.30 -32.90 10.90 -61.60 16.90 -99.05 20.75 -6.10 0.65 -14 0.85 -33.50 0.95 -14 0.05 -27.20 0 -29.25 -0.05z m55.90 -28.45 c59.80 -4.70 117.05 -22.45 169.10 -52.40 28.95 -16.65 52.90 -35.15 77.80 -60.05 20.80 -20.85 34.15 -37.20 50.40 -61.80 21.30 -32.20 38.65 -70.05 49.75 -108.75 18.40 -64.10 19.25 -133.40 2.50 -199.95 -13.50 -53.70 -38.60 -103.55 -74.70 -148.30 -30.95 -38.35 -68.50 -69.75 -112.50 -93.95 -50.40 -27.75 -103.90 -43.40 -164.25 -48.15 -10.80 -0.85 -45.35 -0.85 -55 0 -35.50 3.15 -57.20 7.20 -87.75 16.45 -20.70 6.25 -47.25 16.95 -63.65 25.70 -2.50 1.35 -6.80 3.60 -9.50 5.05 -12.90 6.80 -33.75 20.25 -47.60 30.70 -36.10 27.15 -68.10 61.20 -92.25 98.20 -12.05 18.40 -18.85 30.95 -29.25 53.75 -9.55 21 -19.40 51.30 -24.50 75.50 -12.30 58.30 -11.10 118.20 3.50 175.50 4.95 19.45 13.50 45.10 19 57.10 0.55 1.20 1 2.25 1 2.40 0 0.55 4.85 11 8.70 18.75 30.80 61.85 80.20 116.65 138.55 153.75 26.95 17.15 55.95 31.05 85.50 41.05 34.85 11.80 67.65 18.05 106.25 20.20 10.60 0.60 37.20 0.20 48.90 -0.75z"/>
  <path d="M510.40 602.15 c-3.85 -6.25 -10.90 -20.60 -18.65 -38.15 -3.25 -7.30 -6.40 -14.35 -7 -15.75 -0.65 -1.35 -1.65 -3.60 -2.25 -5 -3.20 -7.10 -9.90 -20.40 -13.05 -25.85 -9.55 -16.40 -14.85 -22.85 -35.85 -43.60 -16.45 -16.25 -24.45 -24.80 -29.75 -31.75 -2.70 -3.50 -3.85 -3.60 -2.70 -0.25 1 2.70 8.65 17.90 13.10 25.95 11.35 20.50 22.10 35.75 34.05 48.40 3 3.15 3.70 4.25 3.60 5.30 -0.15 1.15 -0.35 1.30 -1.80 1.15 -2.95 -0.20 -12 -5.30 -19.70 -11.15 -9.70 -7.30 -22.45 -19.60 -30.65 -29.50 -18.20 -22 -32.70 -51.45 -44.55 -90.55 -1.15 -3.75 -0.65 -4.40 3.40 -4.40 8.05 0 29.50 3.25 41.20 6.25 37.80 9.70 67.95 30.35 84.20 57.70 6.20 10.45 10.15 19.85 12.45 29.65 2.75 11.65 3.40 18.90 2.60 29.65 -0.70 9.45 -0.35 11.10 4.60 19.70 1.95 3.45 4.80 8.95 6.30 12.20 1.50 3.20 3 5.85 3.30 5.85 0.30 0 1.30 -1.95 2.25 -4.35 2.35 -6.30 5.40 -12.65 8.75 -18.40 l2.95 -5 0.35 -13.25 c0.50 -17.05 1.70 -25.65 5.40 -37.50 8.90 -28.80 26.55 -48.65 56.30 -63.25 19.65 -9.65 42.55 -15.75 69.65 -18.50 8.95 -0.90 11.30 -0.95 12.65 -0.25 1.15 0.65 1.15 0.60 -1.90 10.25 -8.15 25.50 -19.65 50.30 -31.80 68.50 -15.45 23.05 -35.25 42.40 -54.45 53.10 -7.60 4.25 -9.85 4.60 -9.90 1.45 0 -0.50 2.50 -3.55 5.65 -6.75 7.10 -7.40 12.15 -13.90 19.85 -25.45 14.65 -22.05 27.45 -48.10 23.65 -48.10 -0.25 0 -3.55 3.40 -7.40 7.55 -3.85 4.15 -13.45 13.60 -21.30 20.95 -20 18.85 -28.25 28.35 -36.70 42.25 -3.70 6.05 -10 18.75 -13.25 26.50 -4.75 11.40 -10.40 25.20 -11.40 27.75 -2.55 6.80 -13.65 30.20 -16.95 35.65 -2.15 3.55 -3.50 3.80 -5.25 1z"/>
  <path d="M506.75 424.65 c-3.50 -1.55 -5.15 -2.75 -6.90 -5.10 -2.35 -3.15 -2.85 -4.95 -2.85 -10.35 0 -4.70 0 -4.70 -1.25 -4.70 -0.90 0 -1.40 0.35 -1.70 1.15 -0.70 1.85 -3.50 4.35 -6 5.45 -3.40 1.45 -10.80 1.10 -14.30 -0.70 -3 -1.55 -6.50 -5.15 -7.75 -8.05 -3.35 -7.75 -1.95 -13.75 4.50 -19.35 1.65 -1.40 3 -2.80 3 -3.05 0 -0.25 -2.40 -0.45 -5.35 -0.45 -7 0 -8.70 -0.50 -11.95 -3.55 -3.80 -3.60 -4.95 -6.50 -4.95 -12.45 0 -4.20 0.15 -5.05 1.40 -7.35 0.75 -1.45 2.15 -3.40 3.10 -4.35 3 -3.05 4.35 -3.50 11.20 -3.80 3.50 -0.15 6.25 -0.45 6.35 -0.75 0.05 -0.25 -1.30 -1.65 -2.95 -3.05 -3.90 -3.15 -5.05 -4.85 -5.85 -8.65 -1.60 -7.70 2.05 -15.40 9.10 -19.15 1.80 -0.95 2.90 -1.15 7.15 -1.15 5.85 0 7.95 0.85 11.80 4.60 3.55 3.45 4.15 3.05 4.45 -3.10 0.20 -4.35 0.45 -5.35 1.75 -7.75 3.40 -6.20 11.10 -8.95 18.75 -6.70 4.75 1.40 7.50 3.70 9.75 8.15 0.65 1.25 0.90 3.10 0.95 6.75 0.05 5.90 0.75 6.65 3 3.35 3.60 -5.15 10.80 -6.90 18.55 -4.50 4.10 1.25 7.30 4.20 9.45 8.60 1.70 3.40 2.25 8.65 1.35 11.95 -0.80 2.85 -3.60 6.60 -6.35 8.50 -3.50 2.50 -3.05 2.90 3.20 2.90 4.55 0 5.70 0.20 7.85 1.20 4.70 2.15 7.90 6.90 8.50 12.65 0.60 5.10 -0.80 9.50 -4.10 13.20 -3.10 3.40 -5.05 4.15 -11.75 4.35 -4.35 0.15 -5.90 0.35 -5.90 0.85 0 0.35 1.20 1.65 2.70 2.95 1.45 1.25 3.45 3.45 4.35 4.85 1.50 2.40 1.65 2.90 1.65 6.65 0 3.50 -0.20 4.50 -1.60 7.40 -2.20 4.50 -5.95 7.95 -9.95 9.05 -4.25 1.20 -10.10 1.10 -12.90 -0.20 -2.10 -1 -5 -3.70 -6.10 -5.70 -0.30 -0.55 -0.85 -0.80 -1.30 -0.60 -0.60 0.25 -0.75 1.25 -0.70 5.45 0 4.30 -0.15 5.50 -1 7.20 -1.40 2.65 -4.30 5.40 -7.15 6.80 -3.10 1.50 -10.35 1.80 -13.25 0.55z m13.85 -44.80 c7.90 -3.85 11.45 -13.85 7.70 -21.55 -1.85 -3.75 -4.65 -6.55 -8.20 -8.20 -2.40 -1.10 -3.55 -1.30 -7.35 -1.30 -4 0 -4.80 0.15 -7.05 1.40 -4.10 2.25 -6.05 4.10 -7.70 7.50 -2.15 4.35 -2.45 7.65 -1 12.25 1.65 5.25 5.20 8.95 10.45 10.90 1.15 0.40 3.35 0.60 6.10 0.50 3.45 -0.10 4.85 -0.40 7.05 -1.50z"/>
  <path d="M399.80 316.25 c-8.10 -1.70 -16.15 -5.25 -23 -10.25 -4.75 -3.40 -8.80 -7.35 -8.80 -8.50 0 -0.45 1.30 -2.05 2.90 -3.55 11 -10.45 27.70 -17.25 39.60 -16.20 8.45 0.80 18.20 4.30 24.75 9 3.65 2.60 10.15 9.45 10.60 11.15 0.25 1 -0.35 1.85 -3.40 4.95 -6.20 6.30 -13 10.10 -22.70 12.75 -4.70 1.30 -15.25 1.65 -19.95 0.65z"/>
  <path d="M609.25 316.30 c-7.40 -1.25 -14.25 -4.25 -21.35 -9.30 -4.10 -2.90 -8.90 -7.45 -8.90 -8.35 0.05 -1.05 7.15 -8.65 10.50 -11.20 6.70 -5.15 13.45 -7.95 22.45 -9.30 4.25 -0.60 6.05 -0.65 9.55 -0.20 11.40 1.45 21.50 6.10 31.75 14.60 4.95 4.10 5.10 4.50 3.10 6.80 -4.50 5.10 -12.55 10.70 -19.50 13.55 -8.95 3.65 -18.95 4.85 -27.60 3.40z"/>
  <path d="M474.25 294.95 c-6.45 -0.95 -14.15 -4 -20.50 -8.20 -6.70 -4.45 -14.30 -12.95 -17.95 -20.10 -5.85 -11.60 -7.45 -28.25 -4 -41.60 0.35 -1.50 0.80 -2.80 0.95 -2.95 0.45 -0.50 10.50 2.25 14.95 4.05 6.30 2.60 11.40 5.95 16.65 11 7.55 7.30 13 16.40 15.50 25.70 2.30 8.65 1.65 23.45 -1.30 31.35 -0.30 0.70 -0.70 1.25 -0.90 1.25 -0.25 -0.05 -1.75 -0.25 -3.40 -0.50z"/>
  <path d="M546.25 291.35 c-3.35 -14.65 -1.70 -28.70 4.80 -40.75 5.60 -10.45 16.70 -20.20 27.85 -24.40 5.25 -2 13.15 -3.95 14.20 -3.55 1.35 0.50 2.15 8.05 2.15 19.60 0 9.85 -0.10 10.80 -1.35 15.30 -1.80 6.45 -3.35 10.20 -5.85 13.90 -7.55 11.40 -18.80 19.05 -32.40 22 -2.40 0.50 -5.35 1.10 -6.50 1.25 l-2.05 0.30 -0.85 -3.65z"/>
  <path d="M509.20 282.40 c-8.60 -9 -13.60 -17.05 -17.15 -27.70 -2.65 -7.90 -3.20 -11.30 -3.20 -19.45 0 -7.55 0.75 -12.20 2.95 -18.75 1.45 -4.35 5.25 -11.75 8.45 -16.50 4.35 -6.45 12.10 -15 13.60 -15 0.25 0 1.55 1.20 2.95 2.65 10.85 11.25 17.95 24.10 20.50 37.10 1.20 6.05 1.20 17.10 0.05 22.40 -2.05 9.15 -6.55 19.15 -12 26.50 -2.85 3.90 -11.15 12.85 -11.85 12.85 -0.20 0 -2.15 -1.85 -4.30 -4.10z"/>
 </g>
 <g fill="#765642">
  <path d="M463 792.15 c-12.45 -1.05 -27.20 -5.30 -41.25 -11.90 -34.35 -16.15 -80.75 -54.20 -109.05 -89.50 -26.60 -33.10 -40.40 -64.05 -50.15 -112.50 -5 -24.65 -7.75 -48.95 -9.10 -79.55 -0.70 -15 -0.20 -33.75 1.30 -49.45 2.35 -25.25 3.50 -30.80 19.90 -96.50 9.35 -37.65 9.60 -38.55 11.60 -41.50 2.40 -3.50 6.70 -6.60 10.95 -7.95 4.20 -1.35 10.60 -0.95 14.15 0.90 5.60 2.80 9.20 7.50 10.45 13.45 0.90 4.25 1.05 2.85 -2.80 33.85 -4.95 39.85 -6.80 56.95 -8.55 79.50 -0.80 10.05 -0.80 37.15 -0.05 46.75 3.15 38.75 10.90 67.90 26.50 99.45 12.85 26.05 33.15 54.80 68.90 97.55 12.10 14.50 14.95 17.25 17.75 17.25 1.90 0 2.45 -1.20 2.45 -5.25 0 -11.50 -10.60 -32.95 -28.05 -56.75 -0.95 -1.25 -6.85 -9 -13.20 -17.25 -16.60 -21.55 -21.25 -28.30 -27.35 -39.75 -5.15 -9.65 -9.65 -22 -11.05 -30.25 -1.75 -10.25 1.75 -18.60 9.25 -22.05 4.20 -1.95 8.90 -1.95 14.60 0 6.70 2.25 11.75 6.45 17.45 14.55 11.15 15.75 27.60 36.30 42.35 52.75 11.20 12.55 26.60 28.50 48.65 50.35 25.90 25.65 28.05 27.85 33.95 35.25 15.35 19.05 26.95 41.40 34.45 66.30 4.35 14.50 12.55 49.65 11.75 50.45 -1.10 1.10 -85.10 2.65 -95.80 1.80z"/>
  <path d="M586.05 756.35 c-2.35 -7.90 -8.45 -26.15 -10.45 -31.10 -8.50 -21.20 -21.40 -42.85 -34.20 -57.30 -4.15 -4.70 -4.10 -4.45 -1.80 -10.90 9.40 -26.55 26.45 -49.45 48.65 -65.30 5.40 -3.85 12 -7.95 39 -24.10 44.85 -26.85 61.15 -37.35 72.25 -46.60 4.40 -3.65 11.75 -10.35 18.25 -16.60 11.05 -10.65 14.80 -13.70 22.50 -18.10 6.10 -3.50 12.10 -5.30 18.55 -5.50 5.85 -0.15 6.70 -0.60 6.70 -3.40 0 -1.75 -1.35 -3.40 -4.60 -5.60 -4.15 -2.85 -7.80 -3.90 -14.45 -4.20 -8.05 -0.40 -16 1.40 -25.15 5.60 l-2.55 1.15 -0.30 -12.05 c-0.60 -23.10 -2.85 -45.25 -9.95 -98.85 -3.05 -23.10 -5.10 -42.40 -4.75 -45.25 1.10 -8.65 4.60 -14.15 11.40 -17.80 2.80 -1.55 3.50 -1.70 7.10 -1.70 3.55 0 4.40 0.20 7.75 1.80 4.45 2.15 8.15 5.35 10.35 9 1.60 2.70 3.85 10.50 10.40 36.45 1.30 5.10 4.40 16.80 6.85 26 12.70 47.45 16.40 64.75 18.65 88.25 1.20 11.95 0.85 24.70 -1.05 42 -5.65 51.40 -18.70 86.05 -41.30 109.55 -15.20 15.80 -30.30 27.40 -71.65 55.10 -16.35 10.90 -20.05 13.65 -26.80 19.80 -9.45 8.55 -18.55 19.25 -26.05 30.65 -7.20 10.90 -12.40 20.80 -18.35 34.90 -1.75 4.15 -3.30 7.65 -3.50 7.85 -0.15 0.20 -0.85 -1.50 -1.50 -3.75z"/>
 </g>
</svg>